<mxfile host="app.diagrams.net" modified="2024-03-14T16:23:23.296Z" agent="Mozilla/5.0 (Macintosh; Intel Mac OS X 10_15_7) AppleWebKit/537.36 (KHTML, like Gecko) Chrome/122.0.0.0 Safari/537.36 Edg/122.0.0.0" version="24.0.6" etag="Hgp17XNVRI-vbUqwTUN4" type="github">
  <diagram name="第 1 页" id="dySDN7LTNGQ5a6AoeZhF">
    <mxGraphModel>
      <root>
        <mxCell id="0" />
        <mxCell id="1" parent="0" />
      </root>
    </mxGraphModel>
  </diagram>
</mxfile>
